<?xml version="1.0" encoding="iso-8859-1"?>
<!-- Generator: Adobe Illustrator 19.0.0, SVG Export Plug-In . SVG Version: 6.00 Build 0)  -->
<svg version="1.1" id="Layer_1" xmlns="http://www.w3.org/2000/svg" xmlns:xlink="http://www.w3.org/1999/xlink" x="0px" y="0px"
	 viewBox="0 0 309.059 309.059" style="enable-background:new 0 0 309.059 309.059;" xml:space="preserve">
<g>
	<circle style="fill:#28D2E4;" cx="154.53" cy="176.142" r="125.417"/>
	<circle style="fill:#FFDB77;" cx="154.53" cy="176.142" r="88.683"/>
	<circle style="fill:#13829B;" cx="154.53" cy="29.113" r="21.612"/>
	<g>
		<path style="fill:#22313F;" d="M178.633,45.421C191.652,26.241,177.892,0,154.53,0c-23.368,0-37.12,26.244-24.103,45.421
			C68.604,56.792,21.613,111.08,21.613,176.142c0,73.291,59.626,132.917,132.917,132.917s132.917-59.626,132.917-132.917
			C287.447,111.08,240.456,56.792,178.633,45.421z M140.418,29.112c0-7.781,6.331-14.112,14.112-14.112s14.112,6.331,14.112,14.112
			s-6.331,14.112-14.112,14.112C146.749,43.225,140.418,36.894,140.418,29.112z M154.53,294.059
			c-65.019,0-117.917-52.897-117.917-117.917S89.511,58.225,154.53,58.225s117.917,52.897,117.917,117.917
			S219.549,294.059,154.53,294.059z"/>
		<path style="fill:#22313F;" d="M154.53,79.959c-53.035,0-96.183,43.147-96.183,96.183s43.147,96.183,96.183,96.183
			s96.183-43.147,96.183-96.183S207.564,79.959,154.53,79.959z M154.53,257.324c-44.765,0-81.183-36.418-81.183-81.183
			s36.418-81.183,81.183-81.183s81.183,36.418,81.183,81.183S199.295,257.324,154.53,257.324z"/>
		<path style="fill:#22313F;" d="M179.896,145.404l-73.009,36.698c-3.591,1.805-2.576,7.184,1.426,7.557l26.611,2.476
			c1.916,0.178,3.434,1.696,3.612,3.612l2.475,26.611c0.372,4.002,5.752,5.017,7.557,1.426l36.698-73.009
			C186.997,147.332,183.34,143.674,179.896,145.404z"/>
	</g>
</g>
<g>
</g>
<g>
</g>
<g>
</g>
<g>
</g>
<g>
</g>
<g>
</g>
<g>
</g>
<g>
</g>
<g>
</g>
<g>
</g>
<g>
</g>
<g>
</g>
<g>
</g>
<g>
</g>
<g>
</g>
</svg>
