<?xml version="1.0" encoding="iso-8859-1"?>
<!-- Generator: Adobe Illustrator 19.0.0, SVG Export Plug-In . SVG Version: 6.00 Build 0)  -->
<svg version="1.1" id="Layer_1" xmlns="http://www.w3.org/2000/svg" xmlns:xlink="http://www.w3.org/1999/xlink" x="0px" y="0px"
	 viewBox="0 0 278.822 278.822" style="enable-background:new 0 0 278.822 278.822;" xml:space="preserve">
<g>
	<path style="fill:#1D1D1B;" d="M253.575,256.921c6.108,5.787,9.203,11.895,4.421,19.209c0.442,1.165-0.161,2.692-1.768,2.692
		c-50.754-0.04-101.509-1.728-152.263-2.692c-13.342-0.241-26.683-0.482-40.065-0.804c-9.444-0.201-21.097,1.447-30.18-0.964
		c-4.742-1.286-8.439-3.054-10.207-6.349c-0.08-0.08-0.161-0.08-0.201-0.201c-0.12-0.322-0.201-0.643-0.321-0.924
		c-0.08-0.241-0.161-0.402-0.241-0.643c-3.938-11.574,0.924-25.518,9.805-36.971c-3.898-0.683-7.635-2.371-10.649-4.983
		c-2.331-1.969-4.702-5.345-2.612-8.278c0.121-0.201,0.241-0.322,0.402-0.402c-0.522-0.201-0.522-1.005,0.161-1.045
		c9.243-0.884,19.329-1.567,28.612-0.603c0.201,0,0.322,0.121,0.482,0.241c7.756-4.983,16.195-7.796,23.991-7.033
		c0.321-0.04,0.643,0,0.965,0.121c0.08,0,0.161,0,0.241,0c0.08,0.04,0.04,0.121,0.121,0.161c0.683,0.402,1.206,1.165,0.924,2.049
		c-0.402,1.286-0.723,2.532-0.964,3.777c18.807-1.768,37.815-2.652,56.863-3.014c-9.122-39.261-13.06-81.657-9.725-121.803
		c2.612-31.385,8.881-66.507,33.917-88.087c0.563-0.482,1.206-0.442,1.728-0.201c0.442-0.161,1.005-0.12,1.406,0.402
		c0.201,0.281,0.442,0.563,0.643,0.844c0.121,0.04,0.241,0.08,0.281,0.241c0.04,0.08,0.121,0.201,0.161,0.281
		c0.161,0.241,0.321,0.442,0.482,0.643c0.322,0.402,0.362,0.763,0.362,1.085c13.301,27.045,25.438,54.733,38.9,81.738
		c6.671,13.301,13.342,26.563,19.892,39.945c3.577,7.274,15.311,23.83,14.828,32.39c-0.643,11.252-21.7,15.271-30.461,18.325
		c-21.459,7.434-41.391,19.651-64.176,22.544c0.482,3.858,0.964,7.716,1.366,11.533c23.75-0.241,47.499,0.201,71.008,0.964
		c0.603,0,0.964,0.322,1.165,0.764c3.215-1.366,6.389-2.492,9.484-3.295c0.201-0.08,0.402-0.04,0.603-0.04
		c1.246-0.764,3.175,0.201,2.773,2.009c-0.121,0.603-0.201,1.125-0.281,1.688c5.264-0.683,11.212-1.246,16.436-0.563
		c0.643,0.08,1.045,0.643,1.125,1.206c0.643,0.281,1.085,0.924,0.763,1.768c-2.853,7.233-8.841,12.699-16.476,14.145
		C232.236,240.084,244.051,247.92,253.575,256.921z M255.464,274.844c5.988-11.774-21.982-28.572-27.648-36.489
		c-5.425-7.555-8.278-16.114-6.631-25.036c-15.23,5.546-28.853,14.467-34.962,30.26c-0.201,0.603-0.643,0.884-1.125,0.964
		c-0.281,0.241-0.603,0.442-1.005,0.402c-5.666-0.201-10.569-5.867-12.659-10.77c-2.009-4.782-2.049-10.288,0.121-14.909
		c-16.717,3.697-29.778,10.77-41.552,23.71c-0.804,0.884-2.17,0.08-2.21-0.884c-7.876-4.863-7.836-16.597-4.461-24.594
		c-17.481,1.085-29.014,12.136-39.583,24.995c-0.04,0.04-0.121,0.08-0.201,0.161c-0.241,0.482-0.844,0.804-1.447,0.442
		c-10.971-6.631-15.11-21.339-10.89-33.193c-9.403,4.862-19.169,7.474-27.608,14.788c-11.734,10.127-18.968,23.669-18.003,39.02
		c10.85,14.105,103.92,8.76,118.427,9.002C181.16,273.357,218.372,273.558,255.464,274.844z M240.474,214.204
		c-4.983,0.643-10.448,0.482-15.351,0.08c-0.482,4.541,0.04,8.519,1.286,12.176C232.638,224.532,237.943,220.352,240.474,214.204z
		 M225.726,157.221c2.934-11.172-6.43-23.308-11.332-33.394C195.748,85.61,173.646,47.876,159.661,7.57
		c-44.244,54.452-29.094,123.651-20.736,187.707c20.615-3.094,38.417-14.145,57.867-21.017
		C207.723,170.402,222.632,169.035,225.726,157.221z M208.607,213.842c-11.975-0.08-23.991,0-35.966,0.121
		c-15.431,0.161-30.903,0.442-46.334,0.683c0.321,0.281,0.522,0.643,0.402,1.125c-0.884,4.702-2.13,9.323-1.286,14.145
		c0.643,3.536,2.451,6.108,4.461,8.881c9.846-13.261,26.161-22.745,42.637-23.71c0.04,0,0.08,0,0.121,0
		c0.603,0,1.005,0.241,1.286,0.603c0.844-0.603,2.13,0.241,1.808,1.286c-1.648,5.305-2.652,10.488-0.201,15.753
		c1.929,4.179,5.224,5.827,8.439,8.318C186.666,228.791,197.114,219.629,208.607,213.842z M157.853,4.636
		c-0.04-0.08-0.121-0.121-0.161-0.241c-0.241-0.522-0.442-1.005-0.683-1.487c-27.608,26.201-32.55,67.874-33.354,104.121
		c-0.804,34.841,5.425,68.718,9.283,103.197c2.009-0.04,3.978-0.04,5.947-0.04C123.253,144.763,112.001,60.333,157.853,4.636z
		 M82.384,240.244c7.434-11.975,18.445-21.901,31.948-25.397c-13.462,0.201-26.924,0.362-40.387,0.322
		C72.659,224.532,75.673,232.971,82.384,240.244z M45.654,216.454c-7.997,0.523-16.396,0.04-24.312-0.683
		c0.362,0.362,0.522,0.924,0.201,1.567c-1.206,2.411,3.376,5.305,4.983,6.269c2.25,1.366,4.702,2.17,7.274,2.612
		c0.402,0.08,0.643,0.281,0.844,0.522C37.939,222.884,41.676,219.388,45.654,216.454z"/>
	<path style="fill:#99D9F1;" d="M227.816,238.356c5.666,7.917,33.635,24.714,27.648,36.489c-37.091-1.286-74.303-1.487-111.435-2.13
		c-14.507-0.241-107.577,5.104-118.427-9.002c-0.964-15.351,6.269-28.893,18.003-39.02c8.439-7.314,18.204-9.926,27.608-14.788
		c-4.219,11.855-0.08,26.563,10.89,33.193c0.603,0.362,1.205,0.04,1.447-0.442c0.08-0.08,0.161-0.121,0.201-0.161
		c10.569-12.859,22.102-23.91,39.583-24.995c-3.376,7.997-3.416,19.731,4.461,24.594c0.04,0.965,1.407,1.768,2.21,0.884
		c11.774-12.94,24.835-20.013,41.552-23.71c-2.17,4.621-2.13,10.127-0.121,14.909c2.09,4.903,6.992,10.569,12.659,10.77
		c0.402,0.04,0.723-0.161,1.005-0.402c0.482-0.08,0.924-0.362,1.125-0.964c6.108-15.793,19.731-24.714,34.962-30.26
		C219.538,222.241,222.391,230.801,227.816,238.356z M252.128,270.062c0.844-3.175,0.402-6.229-1.085-9.122
		c-0.362-0.723-1.648-0.241-1.326,0.563c1.005,2.612,1.246,5.345,0.844,8.117C250.4,270.625,251.847,271.107,252.128,270.062z
		 M247.025,264.838c0.08-2.17-0.603-4.019-2.25-5.425c-0.563-0.482-1.286,0.241-0.804,0.804c1.165,1.326,1.808,2.853,1.808,4.621
		C245.779,265.642,246.985,265.642,247.025,264.838z M219.779,232.689c0.522,0.643,1.567-0.201,1.125-0.884
		c-1.045-1.608-1.808-3.215-2.009-5.144c-0.12-0.844-1.406-0.884-1.366,0C217.689,228.912,218.332,230.921,219.779,232.689z
		 M219.779,236.186c0.723,0.643,1.648-0.321,1.045-1.045c-1.848-2.13-3.134-4.621-3.416-7.475c-0.08-0.924-1.527-0.964-1.487,0
		C216.042,230.962,217.247,234.016,219.779,236.186z M210.375,255.033c0.281,0.964,1.808,0.563,1.527-0.442
		c-0.362-1.165-0.683-2.331-1.125-3.456c-0.321-0.844-1.527-0.522-1.326,0.362C209.692,252.702,210.054,253.867,210.375,255.033z
		 M169.667,240.847c0.884,0.442,1.688-0.884,0.804-1.366c-1.808-1.005-2.853-2.692-2.813-4.782c0.04-0.884-1.246-0.844-1.326,0
		C166.051,237.311,167.296,239.682,169.667,240.847z M135.871,267.932c0.804,0.04,0.764-1.165,0-1.246
		c-2.17-0.241-4.34-0.402-6.51-0.482c-0.804-0.04-0.763,1.085,0,1.165C131.531,267.611,133.701,267.812,135.871,267.932z
		 M129.361,270.263c0.603,0.08,0.723-0.924,0.121-1.045c-2.371-0.442-4.742-0.804-7.153-1.005c-0.603-0.04-0.723,0.924-0.161,1.045
		C124.579,269.741,126.95,270.022,129.361,270.263z M97.012,236.788c0.643-0.362,0.241-1.487-0.482-1.246
		c-1.768,0.683-3.175,1.728-4.38,3.134c-0.603,0.723,0.402,1.808,1.045,1.085C94.319,238.516,95.565,237.592,97.012,236.788z
		 M93.073,237.11c0.563-0.482-0.241-1.246-0.804-0.804c-2.25,1.808-3.898,4.059-5.063,6.671c-0.281,0.603,0.603,1.125,0.884,0.522
		C89.336,241.048,91.024,238.958,93.073,237.11z M69.123,236.467c0.362,0.563,1.246,0.08,0.924-0.522
		c-1.447-2.572-2.291-5.345-2.411-8.278c-0.04-0.764-1.205-0.764-1.205,0C66.471,230.921,67.274,233.775,69.123,236.467z
		 M33.438,250.612c0.362-0.603-0.522-1.326-0.964-0.764c-1.366,1.648-1.889,3.295-1.808,5.465c0.04,0.884,1.366,0.884,1.407,0
		C32.152,253.626,32.634,252.019,33.438,250.612z M31.067,250.17c0.402-0.804-0.723-1.487-1.246-0.723
		c-1.969,3.014-2.411,6.55-1.607,10.046c0.201,0.764,1.286,0.442,1.165-0.321C28.897,255.997,29.58,252.983,31.067,250.17z"/>
	<path style="fill:#1D1D1B;" d="M251.043,260.94c1.487,2.893,1.929,5.948,1.085,9.122c-0.281,1.045-1.728,0.563-1.567-0.442
		c0.402-2.773,0.161-5.505-0.844-8.117C249.396,260.699,250.682,260.217,251.043,260.94z"/>
	<path style="fill:#1D1D1B;" d="M244.774,259.413c1.648,1.406,2.331,3.255,2.25,5.425c-0.04,0.804-1.246,0.804-1.246,0
		c0-1.768-0.643-3.295-1.808-4.621C243.488,259.654,244.212,258.931,244.774,259.413z"/>
	<path style="fill:#33AA6C;" d="M225.124,214.284c4.903,0.402,10.368,0.563,15.351-0.08c-2.532,6.148-7.836,10.328-14.065,12.257
		C225.164,222.804,224.641,218.825,225.124,214.284z"/>
	<path style="fill:#DEDC00;" d="M214.394,123.827c4.903,10.087,14.266,22.223,11.332,33.394
		c-3.094,11.814-18.003,13.181-28.934,17.039c-19.45,6.872-37.252,17.923-57.867,21.017
		c-8.358-64.056-23.508-133.256,20.736-187.708C173.646,47.876,195.748,85.61,214.394,123.827z M221.748,151.314
		c0.121-2.17-0.121-4.541-1.406-6.349c-0.322-0.482-1.125-0.201-0.965,0.402c0.523,2.009,1.206,3.818,1.206,5.947
		C220.583,152.077,221.708,152.037,221.748,151.314z M218.091,150.831c0.121-2.21,0.121-4.38,0-6.55
		c-0.04-0.884-1.366-0.884-1.407,0c-0.04,2.17,0,4.34,0.201,6.55C216.966,151.595,218.051,151.595,218.091,150.831z
		 M194.221,113.338c0.161-2.09,0.241-1.728-0.563-3.697c-0.723-1.889-3.737-1.206-3.134,0.884
		c0.563,1.929-36.408,14.427-43.843,17.561c-0.362-1.326-0.603-2.773-1.366-3.938c-0.723-1.205-2.492-0.442-2.21,0.924
		c0.322,1.447,1.246,2.813,1.969,4.139c0.161,0.281,0.402,0.362,0.643,0.402c0.161,0.08,0.322,0.161,0.522,0.121
		c15.793-3.657,31.224-10.006,46.736-14.748C193.739,114.745,194.14,114.102,194.221,113.338z M177.061,160.355
		c0.482,0.523,1.487-0.201,1.045-0.804c-0.683-0.884-1.406-1.808-2.09-2.692c-0.563-0.723-1.607,0.322-1.005,1.005
		C175.695,158.708,176.378,159.552,177.061,160.355z M172.681,93.165c0.12,0.563,1.125,0.442,1.045-0.161
		c-0.281-2.371-0.603-4.782-1.125-7.153c-0.161-0.643-1.246-0.482-1.165,0.161C171.717,88.423,172.159,90.794,172.681,93.165z
		 M169.667,95.295c0.201,0.924,1.567,0.522,1.406-0.402c-0.402-2.009-0.764-4.059-1.366-6.068c-0.241-0.884-1.487-0.482-1.366,0.402
		C168.622,91.276,169.185,93.285,169.667,95.295z M158.456,32.083c0.402,0.723,1.406,0.08,1.085-0.643
		c-0.643-1.366-1.326-2.692-2.049-4.019c-0.362-0.683-1.326-0.08-1.005,0.603C157.089,29.39,157.732,30.756,158.456,32.083z
		 M154.638,184.587c0.763-0.281,0.442-1.487-0.362-1.286c-2.049,0.563-4.099,1.165-6.068,1.969
		c-0.643,0.241-0.402,1.206,0.322,1.045C150.579,185.873,152.629,185.27,154.638,184.587z M153.352,187.4
		c0.563-0.522-0.161-1.447-0.764-1.045c-2.853,1.889-5.706,3.014-9.203,2.612c-0.643-0.08-0.764,1.045-0.161,1.125
		C146.842,190.695,150.7,189.972,153.352,187.4z M150.459,35.78c0.402-0.442-0.161-1.326-0.723-0.924
		c-2.974,2.17-4.461,5.305-4.702,8.921c-0.08,0.764,1.165,0.924,1.286,0.201C146.842,40.883,148.369,38.11,150.459,35.78z
		 M148.53,102.327c0.322,0.482,1.005,0.04,0.763-0.482c-0.683-1.487-0.964-3.135-0.804-4.782c0.08-0.723-1.005-0.683-1.125,0
		C147.123,99.032,147.445,100.68,148.53,102.327z M146.078,37.186c0.482-0.643-0.563-1.487-1.125-0.844
		c-2.049,2.371-3.094,5.305-3.255,8.479c-0.04,0.683,1.085,0.844,1.206,0.161C143.306,42.089,144.431,39.597,146.078,37.186z"/>
	<path style="fill:#1D1D1B;" d="M220.341,144.964c1.286,1.808,1.527,4.179,1.406,6.349c-0.04,0.723-1.165,0.764-1.165,0
		c0-2.13-0.683-3.938-1.206-5.947C219.216,144.763,220.02,144.482,220.341,144.964z"/>
	<path style="fill:#1D1D1B;" d="M220.904,231.805c0.442,0.683-0.603,1.527-1.125,0.884c-1.447-1.768-2.09-3.777-2.25-6.028
		c-0.04-0.884,1.246-0.844,1.366,0C219.096,228.591,219.859,230.198,220.904,231.805z"/>
	<path style="fill:#1D1D1B;" d="M220.824,235.141c0.603,0.723-0.322,1.688-1.045,1.045c-2.532-2.17-3.737-5.224-3.858-8.519
		c-0.04-0.964,1.406-0.924,1.487,0C217.689,230.519,218.975,233.011,220.824,235.141z"/>
	<path style="fill:#1D1D1B;" d="M218.091,144.281c0.121,2.17,0.121,4.34,0,6.55c-0.04,0.764-1.125,0.764-1.206,0
		c-0.201-2.21-0.241-4.38-0.201-6.55C216.725,143.397,218.051,143.397,218.091,144.281z"/>
	<path style="fill:#1D1D1B;" d="M211.902,254.591c0.281,1.005-1.246,1.407-1.527,0.442c-0.321-1.165-0.683-2.331-0.924-3.536
		c-0.201-0.884,1.005-1.205,1.326-0.362C211.219,252.26,211.541,253.425,211.902,254.591z"/>
	<path style="fill:#33AA6C;" d="M172.641,213.963c11.975-0.121,23.991-0.201,35.966-0.121
		c-11.493,5.787-21.941,14.949-24.634,27.206c-3.215-2.492-6.51-4.139-8.439-8.318c-2.451-5.264-1.447-10.448,0.201-15.753
		c0.322-1.045-0.964-1.889-1.808-1.286c-0.281-0.362-0.683-0.603-1.286-0.603L172.641,213.963L172.641,213.963z M193.859,220.915
		c0.804-0.161,0.643-1.527-0.201-1.487c-3.335,0.241-5.907,2.331-7.113,5.425c-0.321,0.844,1.125,1.447,1.487,0.603
		C189.117,222.965,191.207,221.478,193.859,220.915z"/>
	<path style="fill:#1D1D1B;" d="M193.658,109.641c0.804,1.969,0.723,1.607,0.563,3.697c-0.08,0.764-0.482,1.407-1.246,1.648
		c-15.512,4.742-30.943,11.091-46.736,14.748c-0.201,0.04-0.362-0.04-0.522-0.121c-0.241-0.04-0.482-0.121-0.643-0.402
		c-0.723-1.326-1.648-2.692-1.969-4.139c-0.281-1.366,1.487-2.13,2.21-0.924c0.764,1.165,1.005,2.612,1.366,3.938
		c7.434-3.134,44.405-15.632,43.843-17.561C189.921,108.435,192.935,107.752,193.658,109.641z"/>
	<path style="fill:#1D1D1B;" d="M193.658,219.428c0.844-0.04,1.005,1.326,0.201,1.487c-2.652,0.563-4.742,2.049-5.827,4.541
		c-0.362,0.844-1.808,0.241-1.487-0.603C187.751,221.759,190.323,219.669,193.658,219.428z"/>
	<path style="fill:#1D1D1B;" d="M178.106,159.552c0.442,0.603-0.563,1.326-1.045,0.804c-0.683-0.804-1.366-1.648-2.049-2.492
		c-0.603-0.683,0.442-1.728,1.005-1.005C176.7,157.743,177.423,158.667,178.106,159.552z"/>
	<path style="fill:#1D1D1B;" d="M173.726,93.004c0.08,0.603-0.924,0.723-1.045,0.161c-0.522-2.371-0.964-4.742-1.246-7.153
		c-0.08-0.643,1.005-0.804,1.165-0.161C173.123,88.222,173.445,90.633,173.726,93.004z"/>
	<path style="fill:#33AA6C;" d="M172.641,213.963v1.125c-0.04,0-0.08,0-0.121,0c-16.476,0.964-32.792,10.448-42.637,23.71
		c-2.009-2.773-3.818-5.345-4.461-8.881c-0.844-4.822,0.402-9.444,1.286-14.145c0.12-0.482-0.08-0.844-0.402-1.125
		C141.738,214.405,157.21,214.124,172.641,213.963z M140.412,219.951c0.362-0.04,0.362-0.643,0-0.643
		c-2.21,0.201-4.34,0.04-6.47-0.482c-0.402-0.08-0.563,0.522-0.161,0.603C135.992,219.951,138.122,220.111,140.412,219.951z
		 M139.89,223.246c0.804,0.04,0.764-1.125,0-1.206c-2.692-0.241-5.345-0.402-8.037-0.402c-0.683,0-0.643,0.924,0,1.005
		C134.545,223.005,137.197,223.165,139.89,223.246z"/>
	<path style="fill:#1D1D1B;" d="M171.074,94.893c0.161,0.924-1.206,1.326-1.406,0.402c-0.482-2.009-1.045-4.019-1.326-6.068
		c-0.12-0.884,1.125-1.286,1.366-0.402C170.31,90.834,170.672,92.884,171.074,94.893z"/>
	<path style="fill:#1D1D1B;" d="M170.471,239.481c0.884,0.482,0.08,1.808-0.804,1.366c-2.371-1.165-3.617-3.536-3.335-6.148
		c0.08-0.844,1.366-0.884,1.326,0C167.618,236.788,168.663,238.476,170.471,239.481z"/>
	<path style="fill:#1D1D1B;" d="M159.541,31.44c0.322,0.723-0.683,1.366-1.085,0.643c-0.723-1.326-1.366-2.693-1.969-4.059
		c-0.322-0.683,0.643-1.286,1.005-0.603C158.214,28.747,158.898,30.073,159.541,31.44z"/>
	<path style="fill:#DEDC00;" d="M157.692,4.395c0.04,0.121,0.121,0.161,0.161,0.241c-45.852,55.697-34.6,140.127-18.968,205.55
		c-1.969,0-3.938,0-5.947,0.04c-3.858-34.479-10.087-68.356-9.283-103.197c0.804-36.247,5.746-77.92,33.354-104.121
		C157.25,3.39,157.451,3.872,157.692,4.395z"/>
	<path style="fill:#1D1D1B;" d="M154.276,183.301c0.804-0.201,1.125,1.005,0.362,1.286c-2.009,0.683-4.059,1.286-6.108,1.728
		c-0.723,0.161-0.965-0.804-0.322-1.045C150.177,184.467,152.227,183.864,154.276,183.301z"/>
	<path style="fill:#1D1D1B;" d="M152.588,186.355c0.603-0.402,1.326,0.522,0.764,1.045c-2.652,2.572-6.51,3.295-10.127,2.692
		c-0.603-0.08-0.482-1.206,0.161-1.125C146.882,189.369,149.735,188.244,152.588,186.355z"/>
	<path style="fill:#1D1D1B;" d="M149.735,34.855c0.563-0.402,1.125,0.482,0.723,0.924c-2.09,2.331-3.617,5.104-4.139,8.198
		c-0.121,0.723-1.366,0.563-1.286-0.201C145.275,40.16,146.761,37.025,149.735,34.855z"/>
	<path style="fill:#1D1D1B;" d="M149.293,101.845c0.241,0.522-0.442,0.965-0.763,0.482c-1.085-1.648-1.407-3.295-1.165-5.264
		c0.121-0.683,1.206-0.723,1.125,0C148.329,98.71,148.61,100.358,149.293,101.845z"/>
	<path style="fill:#1D1D1B;" d="M144.953,36.342c0.563-0.643,1.607,0.201,1.125,0.844c-1.648,2.411-2.773,4.903-3.175,7.796
		c-0.121,0.683-1.246,0.522-1.206-0.161C141.859,41.647,142.904,38.713,144.953,36.342z"/>
	<path style="fill:#1D1D1B;" d="M140.412,219.308c0.362,0,0.362,0.603,0,0.643c-2.291,0.161-4.42,0-6.631-0.522
		c-0.402-0.08-0.241-0.683,0.161-0.603C136.072,219.348,138.202,219.509,140.412,219.308z"/>
	<path style="fill:#1D1D1B;" d="M139.89,222.04c0.764,0.08,0.804,1.246,0,1.206c-2.692-0.08-5.345-0.241-8.037-0.603
		c-0.643-0.08-0.683-1.005,0-1.005C134.545,221.638,137.197,221.799,139.89,222.04z"/>
	<path style="fill:#1D1D1B;" d="M135.871,266.687c0.764,0.08,0.804,1.286,0,1.246c-2.17-0.121-4.34-0.322-6.51-0.563
		c-0.763-0.08-0.804-1.206,0-1.165C131.531,266.285,133.701,266.445,135.871,266.687z"/>
	<path style="fill:#1D1D1B;" d="M129.482,269.218c0.603,0.121,0.482,1.125-0.121,1.045c-2.411-0.241-4.782-0.522-7.193-1.005
		c-0.563-0.12-0.442-1.085,0.161-1.045C124.74,268.415,127.111,268.776,129.482,269.218z"/>
	<path style="fill:#33AA6C;" d="M114.332,214.847c-13.502,3.496-24.513,13.422-31.948,25.397
		c-6.711-7.274-9.725-15.713-8.439-25.076C87.407,215.209,100.869,215.048,114.332,214.847z M79.33,225.858
		c0.322,1.045,1.929,0.603,1.648-0.442c-0.322-1.165-0.643-2.331-1.045-3.496c-0.362-1.005-1.808-0.603-1.608,0.442
		C78.607,223.567,78.968,224.693,79.33,225.858z M77.803,229.957c0.402,0.442,1.165-0.12,0.844-0.603
		c-1.326-1.768-2.09-3.737-2.492-5.867c-0.161-0.683-1.326-0.522-1.246,0.161C75.231,226.099,76.195,228.108,77.803,229.957z"/>
	<path style="fill:#1D1D1B;" d="M96.529,235.543c0.723-0.241,1.125,0.884,0.482,1.246c-1.447,0.804-2.692,1.728-3.818,2.974
		c-0.643,0.723-1.648-0.362-1.045-1.085C93.355,237.271,94.761,236.226,96.529,235.543z"/>
	<path style="fill:#1D1D1B;" d="M92.27,236.306c0.563-0.442,1.366,0.321,0.804,0.804c-2.049,1.849-3.737,3.938-4.983,6.39
		c-0.281,0.603-1.165,0.08-0.884-0.522C88.372,240.365,90.019,238.115,92.27,236.306z"/>
	<path style="fill:#1D1D1B;" d="M80.978,225.416c0.281,1.045-1.326,1.487-1.648,0.442c-0.362-1.165-0.723-2.291-1.005-3.496
		c-0.201-1.045,1.246-1.447,1.608-0.442C80.335,223.085,80.656,224.251,80.978,225.416z"/>
	<path style="fill:#1D1D1B;" d="M78.647,229.354c0.322,0.482-0.442,1.045-0.844,0.603c-1.607-1.849-2.572-3.858-2.893-6.309
		c-0.08-0.683,1.085-0.844,1.246-0.161C76.557,225.617,77.321,227.586,78.647,229.354z"/>
	<path style="fill:#1D1D1B;" d="M70.047,235.945c0.322,0.603-0.563,1.085-0.924,0.522c-1.848-2.692-2.652-5.546-2.692-8.801
		c0-0.764,1.165-0.764,1.205,0C67.756,230.6,68.6,233.373,70.047,235.945z"/>
	<path style="fill:#33AA6C;" d="M21.342,215.771c7.917,0.723,16.315,1.206,24.312,0.683c-3.978,2.934-7.716,6.43-11.011,10.288
		c-0.201-0.241-0.442-0.442-0.844-0.522c-2.572-0.442-5.023-1.246-7.274-2.612c-1.607-0.964-6.189-3.858-4.983-6.269
		C21.864,216.696,21.704,216.133,21.342,215.771z"/>
	<path style="fill:#1D1D1B;" d="M32.473,249.849c0.442-0.563,1.326,0.161,0.964,0.764c-0.804,1.406-1.286,3.014-1.366,4.702
		c-0.04,0.884-1.366,0.884-1.407,0C30.585,253.144,31.107,251.496,32.473,249.849z"/>
	<path style="fill:#1D1D1B;" d="M29.821,249.447c0.522-0.764,1.648-0.08,1.246,0.723c-1.487,2.813-2.17,5.827-1.688,9.002
		c0.121,0.763-0.964,1.085-1.165,0.321C27.41,255.997,27.852,252.461,29.821,249.447z"/>
</g>
<g>
</g>
<g>
</g>
<g>
</g>
<g>
</g>
<g>
</g>
<g>
</g>
<g>
</g>
<g>
</g>
<g>
</g>
<g>
</g>
<g>
</g>
<g>
</g>
<g>
</g>
<g>
</g>
<g>
</g>
</svg>
